<svg viewBox="0 0 20 20" xmlns="http://www.w3.org/2000/svg">
    <path
        d="M6.04169 7.15028C6.04169 4.96534 7.81389 3.19409 10 3.19409C12.1861 3.19409 13.9584 4.96534 13.9584 7.15028C13.9584 9.33522 12.1861 11.1065 10 11.1065C7.81389 11.1065 6.04169 9.33522 6.04169 7.15028ZM10 9.52399C11.3117 9.52399 12.375 8.46124 12.375 7.15028C12.375 5.83931 11.3117 4.77657 10 4.77657C8.68834 4.77657 7.62502 5.83931 7.62502 7.15028C7.62502 8.46124 8.68834 9.52399 10 9.52399Z" />
    <path
        d="M5.52168 13.7517C4.33395 14.9388 3.66669 16.5488 3.66669 18.2276H5.25002C5.25002 16.9685 5.75047 15.761 6.64126 14.8707C7.53206 13.9804 8.74024 13.4802 10 13.4802C11.2598 13.4802 12.468 13.9804 13.3588 14.8707C14.2496 15.761 14.75 16.9685 14.75 18.2276H16.3334C16.3334 16.5488 15.6661 14.9388 14.4784 13.7517C13.2906 12.5646 11.6797 11.8977 10 11.8977C8.32032 11.8977 6.70941 12.5646 5.52168 13.7517Z" />
</svg>