<svg width="16" height="17" viewBox="0 0 16 17" fill="none" xmlns="http://www.w3.org/2000/svg">
<g clip-path="url(#clip0_14760_55969)">
<path d="M15 7.73V2.97C15 1.92 14.552 1.5 13.439 1.5H10.611C9.498 1.5 9.05 1.92 9.05 2.97V7.73C9.05 8.78 9.498 9.2 10.611 9.2H13.439C14.552 9.2 15 8.78 15 7.73V7.73ZM15 14.03V12.77C15 11.72 14.552 11.3 13.439 11.3H10.611C9.498 11.3 9.05 11.72 9.05 12.77V14.03C9.05 15.08 9.498 15.5 10.611 15.5H13.439C14.552 15.5 15 15.08 15 14.03ZM6.95 9.27V14.03C6.95 15.08 6.502 15.5 5.389 15.5H2.561C1.448 15.5 1 15.08 1 14.03V9.27C1 8.22 1.448 7.8 2.561 7.8H5.389C6.502 7.8 6.95 8.22 6.95 9.27V9.27ZM6.95 2.97V4.23C6.95 5.28 6.502 5.7 5.389 5.7H2.561C1.448 5.7 1 5.28 1 4.23V2.97C1 1.92 1.448 1.5 2.561 1.5H5.389C6.502 1.5 6.95 1.92 6.95 2.97Z"  stroke-width="1.5" stroke-linecap="round" stroke-linejoin="round"/>
</g>
<defs>
<clipPath id="clip0_14760_55969">
<rect width="16" height="16" fill="white" transform="translate(0 0.5)"/>
</clipPath>
</defs>
</svg>
