<svg width="18" height="18" viewBox="0 0 24 24" fill="none" xmlns="http://www.w3.org/2000/svg">
<path d="M11 1.99951H9C4 1.99951 2 3.99951 2 8.99951V14.9995C2 19.9995 4 21.9995 9 21.9995H15C20 21.9995 22 19.9995 22 14.9995V12.9995" stroke="#C6AC8F" stroke-width="2" stroke-linecap="round" stroke-linejoin="round"/>
<path d="M16.0399 3.01999L8.15988 10.9C7.85988 11.2 7.55988 11.79 7.49988 12.22L7.06988 15.23C6.90988 16.32 7.67988 17.08 8.76988 16.93L11.7799 16.5C12.1999 16.44 12.7899 16.14 13.0999 15.84L20.9799 7.95999C22.3399 6.59999 22.9799 5.01999 20.9799 3.01999C18.9799 1.01999 17.3999 1.65999 16.0399 3.01999V3.01999Z" stroke="#C6AC8F" stroke-width="2" stroke-miterlimit="10" stroke-linecap="round" stroke-linejoin="round"/>
<path d="M14.9102 4.1499C15.2417 5.32737 15.8701 6.39997 16.7351 7.26495C17.6001 8.12993 18.6727 8.75831 19.8502 9.0899" stroke="#C6AC8F" stroke-width="2" stroke-miterlimit="10" stroke-linecap="round" stroke-linejoin="round"/>
</svg>
