<svg width="16" height="17" viewBox="0 0 16 17" fill="none" xmlns="http://www.w3.org/2000/svg">
<g clip-path="url(#clip0_14760_56028)">
<path d="M2.11328 5.45999L7.99995 8.86666L13.8466 5.47999M7.99995 14.9067V8.85999"  stroke-width="1.5" stroke-linecap="round" stroke-linejoin="round"/>
<path d="M6.48934 1.83699L2.60166 3.90963C1.72075 4.37878 1 5.55515 1 6.52145V10.4777C1 11.444 1.72075 12.6204 2.60166 13.0895L6.48934 15.1691C7.31929 15.6103 8.68071 15.6103 9.51066 15.1691L13.3983 13.0895C14.2793 12.6204 15 11.444 15 10.4777V6.52145C15 5.55515 14.2793 4.37878 13.3983 3.90963L9.51066 1.82998C8.67343 1.38885 7.31929 1.38885 6.48934 1.83699V1.83699Z"  stroke-width="1.5" stroke-linecap="round" stroke-linejoin="round"/>
</g>
<defs>
<clipPath id="clip0_14760_56028">
<rect width="16" height="16" fill="white" transform="translate(0 0.5)"/>
</clipPath>
</defs>
</svg>
