<svg width="12" height="8" viewBox="0 0 12 8" fill="none" xmlns="http://www.w3.org/2000/svg">
<path d="M5.83333 1.62037C5.61866 1.62373 5.40557 1.65783 5.20058 1.72165C5.2954 1.88841 5.34589 2.07669 5.34722 2.26852C5.34722 2.41748 5.31788 2.56497 5.26088 2.70259C5.20388 2.8402 5.12033 2.96524 5.015 3.07057C4.90968 3.17589 4.78464 3.25944 4.64702 3.31644C4.50941 3.37345 4.36191 3.40278 4.21296 3.40278C4.02113 3.40145 3.83284 3.35096 3.66608 3.25614C3.53452 3.71244 3.54985 4.19856 3.70991 4.64566C3.86998 5.09276 4.16666 5.47816 4.55793 5.74727C4.9492 6.01639 5.41523 6.15557 5.89 6.14511C6.36477 6.13465 6.82421 5.97508 7.20325 5.68899C7.58229 5.4029 7.86171 5.00481 8.00193 4.5511C8.14215 4.09739 8.13606 3.61106 7.98452 3.161C7.83298 2.71094 7.54368 2.31997 7.1576 2.04346C6.77151 1.76696 6.30822 1.61894 5.83333 1.62037ZM11.5962 3.59318C10.4978 1.45003 8.32324 0 5.83333 0C3.34343 0 1.16828 1.45104 0.0704752 3.59338C0.024141 3.68503 0 3.7863 0 3.889C0 3.9917 0.024141 4.09296 0.0704752 4.18461C1.16889 6.32776 3.34343 7.77779 5.83333 7.77779C8.32324 7.77779 10.4984 6.32675 11.5962 4.18441C11.6425 4.09276 11.6667 3.9915 11.6667 3.88879C11.6667 3.78609 11.6425 3.68483 11.5962 3.59318ZM5.83333 6.80557C3.83521 6.80557 2.00338 5.69156 1.01414 3.8889C2.00338 2.08623 3.83501 0.972224 5.83333 0.972224C7.83166 0.972224 9.66329 2.08623 10.6525 3.8889C9.66349 5.69156 7.83166 6.80557 5.83333 6.80557Z" fill="#444444"/>
</svg>
