<svg xmlns="http://www.w3.org/2000/svg" width="19" height="19" fill="none"><path fill="#241A04" d="M.323 2.753c0-.592.208-1.08.622-1.466C1.36.902 1.9.71 2.562.71c.651 0 1.178.19 1.58.568.415.391.623.9.623 1.528a1.87 1.87 0 0 1-.604 1.421c-.415.391-.96.587-1.635.587H2.51c-.652 0-1.179-.196-1.582-.587-.402-.39-.604-.882-.604-1.474Zm.231 15.544V6.43h3.944v11.867H.554Zm6.13 0h3.943v-6.626c0-.415.047-.734.142-.96.166-.402.418-.743.755-1.02.338-.28.761-.418 1.27-.418 1.327 0 1.99.894 1.99 2.682v6.342h3.944v-6.804c0-1.753-.415-3.082-1.244-3.988-.829-.906-1.924-1.359-3.286-1.359-1.528 0-2.718.657-3.57 1.972v.035h-.019l.018-.035V6.43H6.683c.024.38.036 1.558.036 3.535 0 1.978-.012 4.755-.036 8.332Z"></path></svg>