<svg xmlns="http://www.w3.org/2000/svg" width="20" height="19" fill="none"><path fill="#241A04" d="M17.067 5.804c.007.162.007.316.007.478.007 4.91-3.6 10.58-10.198 10.58a9.937 9.937 0 0 1-5.497-1.672 7.035 7.035 0 0 0 5.305-1.546c-1.534-.03-2.883-1.067-3.352-2.584.54.11 1.094.088 1.62-.066-1.67-.339-2.87-1.863-2.877-3.637v-.044a3.44 3.44 0 0 0 1.626.464c-1.57-1.09-2.06-3.261-1.107-4.962 1.825 2.326 4.51 3.732 7.392 3.887a3.818 3.818 0 0 1 1.037-3.556c1.442-1.406 3.714-1.332 5.078.162a6.973 6.973 0 0 0 2.28-.905c-.27.861-.831 1.59-1.577 2.054a7.181 7.181 0 0 0 2.06-.582 7.492 7.492 0 0 1-1.797 1.929Z"></path></svg>