<svg width="12" height="12" viewBox="0 0 12 12" xmlns="http://www.w3.org/2000/svg">
    <path
        d="M11.1472 10.2603L6.88464 6.00008L11.1472 1.77126C11.3608 1.52386 11.3492 1.15258 11.1206 0.919132C10.892 0.685689 10.5235 0.66878 10.2747 0.880324L5.99973 5.07777L1.79953 0.848953C1.55647 0.605687 1.16391 0.605687 0.920852 0.848953C0.802877 0.966762 0.736518 1.12713 0.736518 1.29442C0.736518 1.46172 0.802877 1.62208 0.920852 1.73989L5.11482 5.96244L0.852303 10.185C0.734328 10.3028 0.667969 10.4632 0.667969 10.6304C0.667969 10.7977 0.734328 10.9581 0.852303 11.0759C0.969908 11.1934 1.12912 11.2588 1.29476 11.2579C1.45736 11.2589 1.61391 11.1958 1.73098 11.0822L5.99973 6.8471L10.2747 11.1512C10.3923 11.2687 10.5515 11.3341 10.7172 11.3332C10.8807 11.3325 11.0373 11.2671 11.1534 11.1512C11.2706 11.0326 11.3358 10.8717 11.3346 10.7044C11.3335 10.5371 11.266 10.3772 11.1472 10.2603Z" />
</svg>