<svg width="32" height="32" viewBox="0 0 32 32" fill="none" xmlns="http://www.w3.org/2000/svg">
    <path
        d="M27.3346 30.3335H4.66797C4.1213 30.3335 3.66797 29.8802 3.66797 29.3335C3.66797 28.7868 4.1213 28.3335 4.66797 28.3335H27.3346C27.8813 28.3335 28.3346 28.7868 28.3346 29.3335C28.3346 29.8802 27.8813 30.3335 27.3346 30.3335Z"
        fill="#292D32" />
    <path
        d="M25.3352 24.3333C25.0819 24.3333 24.8285 24.2399 24.6285 24.0399L5.96187 5.37326C5.57521 4.98659 5.57521 4.34659 5.96187 3.95992C6.34854 3.57326 6.98854 3.57326 7.3752 3.95992L26.0419 22.6266C26.4285 23.0133 26.4285 23.6533 26.0419 24.0399C25.8419 24.2399 25.5885 24.3333 25.3352 24.3333Z"
        fill="#292D32" />
    <path
        d="M6.66797 19.3598C6.1213 19.3598 5.66797 18.9065 5.66797 18.3598V4.6665C5.66797 4.11984 6.1213 3.6665 6.66797 3.6665H20.3613C20.908 3.6665 21.3613 4.11984 21.3613 4.6665C21.3613 5.21317 20.908 5.6665 20.3613 5.6665H7.66797V18.3598C7.66797 18.9065 7.21464 19.3598 6.66797 19.3598Z"
        fill="#292D32" />
</svg>