<svg width="10" height="9" viewBox="0 0 10 9" xmlns="http://www.w3.org/2000/svg">
    <g clip-path="url(#clip0_6752_76515)">
        <path
            d="M8.57208 3.69643H5.89351V1.28571C5.89351 0.9899 5.62695 0.75 5.29827 0.75H4.70303C4.37435 0.75 4.10779 0.9899 4.10779 1.28571V3.69643H1.42922C1.10054 3.69643 0.833984 3.93633 0.833984 4.23214V4.76786C0.833984 5.06367 1.10054 5.30357 1.42922 5.30357H4.10779V7.71429C4.10779 8.0101 4.37435 8.25 4.70303 8.25H5.29827C5.62695 8.25 5.89351 8.0101 5.89351 7.71429V5.30357H8.57208C8.90076 5.30357 9.16732 5.06367 9.16732 4.76786V4.23214C9.16732 3.93633 8.90076 3.69643 8.57208 3.69643Z"
            fill="black" />
    </g>
    <defs>
        <clipPath id="clip0_6752_76515">
            <rect width="10" height="9" fill="white" />
        </clipPath>
    </defs>
</svg>