<svg width="8" height="8" viewBox="0 0 8 8" fill="none" xmlns="http://www.w3.org/2000/svg">
<path d="M1.28038 7.92C1.15238 7.80267 0.987042 7.64267 0.784375 7.44C0.688375 7.344 0.613708 7.264 0.560375 7.2L3.44038 4.288L1.64838 2.384L0.752375 1.44C0.837708 1.35467 0.917708 1.27467 0.992375 1.2C1.17371 1.02933 1.31771 0.885333 1.42438 0.768L4.04838 3.632C4.33638 3.32267 4.75238 2.88 5.29638 2.304L5.48838 2.096C6.04304 1.49867 6.46438 1.05067 6.75238 0.752L7.44038 1.44L4.70438 4.304C4.93904 4.57067 5.33371 5.008 5.88838 5.616C6.57104 6.352 7.07238 6.90133 7.39238 7.264L6.73638 7.92L4.09637 4.96L1.28038 7.92Z" fill="#BA1A1A"/>
</svg>
